<?xml version="1.0" encoding="utf-8"?>
<!-- Generator: Adobe Illustrator 16.0.0, SVG Export Plug-In . SVG Version: 6.00 Build 0)  -->
<!DOCTYPE svg PUBLIC "-//W3C//DTD SVG 1.1//EN" "http://www.w3.org/Graphics/SVG/1.1/DTD/svg11.dtd">
<svg version="1.1" id="Layer_1" xmlns="http://www.w3.org/2000/svg" xmlns:xlink="http://www.w3.org/1999/xlink" x="0px" y="0px"
	 width="1920px" height="1360px" viewBox="0 0 1920 1360" enable-background="new 0 0 1920 1360" xml:space="preserve">
<metadata><?xpacket begin="﻿" id="W5M0MpCehiHzreSzNTczkc9d"?>
<x:xmpmeta xmlns:x="adobe:ns:meta/" x:xmptk="Adobe XMP Core 5.3-c011 66.145661, 2012/02/06-14:56:27        ">
   <rdf:RDF xmlns:rdf="http://www.w3.org/1999/02/22-rdf-syntax-ns#">
      <rdf:Description rdf:about=""
            xmlns:dc="http://purl.org/dc/elements/1.1/">
         <dc:format>image/svg+xml</dc:format>
         <dc:title>
            <rdf:Alt>
               <rdf:li xml:lang="x-default">Print</rdf:li>
            </rdf:Alt>
         </dc:title>
      </rdf:Description>
      <rdf:Description rdf:about=""
            xmlns:xmp="http://ns.adobe.com/xap/1.0/"
            xmlns:xmpGImg="http://ns.adobe.com/xap/1.0/g/img/">
         <xmp:MetadataDate>2018-10-06T14:02:28+05:30</xmp:MetadataDate>
         <xmp:ModifyDate>2018-10-06T14:02:28+05:30</xmp:ModifyDate>
         <xmp:CreateDate>2018-10-06T14:02:25+05:30</xmp:CreateDate>
         <xmp:CreatorTool>Adobe Illustrator CS6 (Windows)</xmp:CreatorTool>
         <xmp:Thumbnails>
            <rdf:Alt>
               <rdf:li rdf:parseType="Resource">
                  <xmpGImg:width>256</xmpGImg:width>
                  <xmpGImg:height>180</xmpGImg:height>
                  <xmpGImg:format>JPEG</xmpGImg:format>
                  <xmpGImg:image>/9j/4AAQSkZJRgABAgEASABIAAD/7QAsUGhvdG9zaG9wIDMuMAA4QklNA+0AAAAAABAASAAAAAEA&#xA;AQBIAAAAAQAB/+4ADkFkb2JlAGTAAAAAAf/bAIQABgQEBAUEBgUFBgkGBQYJCwgGBggLDAoKCwoK&#xA;DBAMDAwMDAwQDA4PEA8ODBMTFBQTExwbGxscHx8fHx8fHx8fHwEHBwcNDA0YEBAYGhURFRofHx8f&#xA;Hx8fHx8fHx8fHx8fHx8fHx8fHx8fHx8fHx8fHx8fHx8fHx8fHx8fHx8fHx8f/8AAEQgAtAEAAwER&#xA;AAIRAQMRAf/EAaIAAAAHAQEBAQEAAAAAAAAAAAQFAwIGAQAHCAkKCwEAAgIDAQEBAQEAAAAAAAAA&#xA;AQACAwQFBgcICQoLEAACAQMDAgQCBgcDBAIGAnMBAgMRBAAFIRIxQVEGE2EicYEUMpGhBxWxQiPB&#xA;UtHhMxZi8CRygvElQzRTkqKyY3PCNUQnk6OzNhdUZHTD0uIIJoMJChgZhJRFRqS0VtNVKBry4/PE&#xA;1OT0ZXWFlaW1xdXl9WZ2hpamtsbW5vY3R1dnd4eXp7fH1+f3OEhYaHiImKi4yNjo+Ck5SVlpeYmZ&#xA;qbnJ2en5KjpKWmp6ipqqusra6voRAAICAQIDBQUEBQYECAMDbQEAAhEDBCESMUEFURNhIgZxgZEy&#xA;obHwFMHR4SNCFVJicvEzJDRDghaSUyWiY7LCB3PSNeJEgxdUkwgJChgZJjZFGidkdFU38qOzwygp&#xA;0+PzhJSktMTU5PRldYWVpbXF1eX1RlZmdoaWprbG1ub2R1dnd4eXp7fH1+f3OEhYaHiImKi4yNjo&#xA;+DlJWWl5iZmpucnZ6fkqOkpaanqKmqq6ytrq+v/aAAwDAQACEQMRAD8A9U4q7FXYq7FXYq7FXYq7&#xA;FXYq7FXYq7FXYq7FXYq7FXYq7FXYq7FXYq7FXYq7FXYq7FXYq7FXYq7FUPf6jp+n2z3V/cxWlrH9&#xA;ued1ijX5s5AGERJ2CCaeTecf+cm/I+jh4NEWTXr0bAxVitgfeZxVv9gpB8czcWgnLns0yzgct3sO&#xA;YLe7FXYq7FXYq7FXYq7FXYq7FXYq7FXYq7FXYq7FXYq7FXYq7FXYq7FXYq7FXYq7FXYql+teYNC0&#xA;O1+t6xfwafb70kuJFjDEdl5H4j7DJQgZGgLQZAc3lfmT/nKPyJpxeLR7e51qZfsui/V4CfDnKPU/&#xA;5J5mw7PmeezRLUxHLd5f5i/5yg/MHUecelR2ujQn7LRJ68wHgXm5J90YzLh2fAc92mWpkeTy7WvM&#xA;Wv65c/WdZ1G41Cb9l7iRpONeyhiQo9hmZDHGPIU0mRPNLqZJFv0Wzl3auxV2KuxV2KuxV2KuxV2K&#xA;uxV2KuxV2KuxV2KuxV2KuxV2KuxV2KuxV2KuxV2KuJAFT0xV4D+av/OSQsZ59F8llJriMlJ9ZcB4&#xA;1YGhFuhqr/67fD4A9c2en0N7z+TiZdTW0XzvrGtavrN89/q15NfXkn2p53LtTwFegHYDbNpGAiKD&#xA;hmRPNBUySLdTFbdTFbdTFbfonnLO4dirsVdirsVdirsVdirsVdirsVdirsVdirsVdirsVdirsVdi&#xA;rsVdirsVdirsVeDf85I/mlLp9v8A4N0eYpd3SB9XnjNGjhb7MAI3BkG7/wCTQftZstBp79Z+Dh6n&#xA;NXpD5opm3cG3UxW3UxW3UxW3UxW3UxW36IZyzunYq7FXYq7FXYq7FXYq7FXYq7FXYq7FXYq7FXYq&#xA;7FXYq7FXYq7FXYq7FXYqxv8AMPzvYeTPK91rV1R5VHp2VuTQzXDA8E+W1W/yQcuwYTklQa8uQQjb&#xA;4h1bU77VtTutTv5TNeXkjTTyt3ZzU/IeA7Z0UYiIoOoMiTZQlMki3UxW3UxRbuOK26mK26mK2/Q3&#xA;OVd67FXYq7FXYq7FXYq7FXYq7FXYq7FXYq7FXYq7FXYq7FXYq7FXYq7FXYqgdc13SdC0ufVNVuUt&#xA;bG2XlJK5+5VHVmPQAbnJQgZGhzYykIiy+OfzW/Mu/wDPev8A1kq0Gk2nKPTbNjUqp+1I9Nub0FfD&#xA;Ydq50Gm04xxrq6jPmMz5MJpmQ027jitupitupitupitupitupitv0KzlXfuxV2KuxV2KuxV2KuxV&#xA;2KuxV2KuxV2KuxV2KuxV2KuxVxIAJJoBuScVYVrv5z/lrosrQXWtxS3C7NFah7kgjsWiDoD7FsyY&#xA;aTJLkGiephHqxe5/5yf/AC6hcLHb6lcD+eKCID/kpNGfwy4dnZPJqOuh5tN/zlB+XgiDi01NmPWM&#xA;Qw8h86zhfxx/k7J5L+eh5pFrf/OVdgsbLoWhyySmvGW+kWNV8CY4vU5fLmMth2Yf4i1y146B4r5y&#xA;8/8AmrzhdrPrl4ZkjJMFqg4QRV/kjG1f8o1PvmxxYI4x6Q4WTNKfNjtMta7dTFbdTFbdTFbdTCtu&#xA;pitupii3UxW36D5yj0TsVdirsVdirsVdirsVdirsVdirsVdirsVdirsVdiqW+Y/MWk+XdGudY1Wb&#xA;0bK1Xk7AVZiTRUQd2Y7AZPHjM5UObCcxEWXyX+Y35x+aPONxLAJn0/QySItNhYgMvjOwoZCfA/D4&#xA;DN9p9JHGO+Xe6fNqpT8gwGmZTj26mKLdTFbdTFbdTFbdTFbdTFbdTFbdTFbdTFbdTFbdTFbdTFbf&#xA;oJnKPSOxV2KuxV2KuxV2KuxV2KuxV2KuxV2KuxV2KuxV2Kvl7/nIvz+Nb8wJ5csZOWm6Ox+ssp+G&#xA;S7Io3z9IfAPflm77PwcMeI8z9zp9dn4pcI5B49TNg4Nupitupitt0xW3UxW3UxW3UxW3UxW3UxW3&#xA;UxW3UxW3UxW3UxW3UxV+gOco9M7FXYq7FXYq7FXYq7FXYq7FXYq7FXYq7FXYq7FXl/51fmxb+VdL&#xA;k0jS5g3mS8Si8TX6rG4/vW8Hp9gfT0652j0pyGz9I+1wtXqhAUPqfKLFmYsxLMxqzHcknuc3zpLa&#xA;pitupitupii3UxW3UxW3UxW26YrbuOK26mK2qm2P1UXH7Jcx0p3AB6/TiqlTFbdTFbdTFbdxxW33&#xA;9nJvUuxV2KuxV2KuxV2KuxV2KuxV2KuxVzMFBZjRRuSegGKsO1X84Py10udoLvXoDKpoy26yXNCO&#xA;xMCyAffmTDSZZcouNLV4o85JNN/zkN+WMcZZL2eVh0RLaUMf+DCj8csHZ+Xuaz2hi72DecP+cmpp&#xA;oJLXypYNbM4I/SF5xLr7pCpZa+BZj/q5lYeza3mfk4uXtLpAPDbu6vdQvJbq7le5u7hi800hLO7H&#xA;ckk7nNoIgCg6wyJNlQphRbqYrbqYratbQiSRlIqBHI3/AAKFh+rFbUaYrbqYVtumBbdTFbdTFbdT&#xA;FbTX6lP/AIaE/A8BcluX+SV4V/4IUx6pSqmFFupitupitupitvvvOSerdirsVdirsVdirsVdirsV&#xA;dirsVWyyxQxPLK4SKNS8jsaKqqKkknsBiApL5a/N78477zRdy6To0r2/l2IlGKkq12Qftv39P+VP&#xA;pO+w32k0YgLl9X3Oh1esMzUfp+95bTM9wLdTFbdTFbR2iWzz6lFGoBJDEg9KcTgKQgmQqxU9QaHC&#xA;i2qYrbqYraaeX7ZJ7qdHrQW0vT3Xj/HAUhK6YUW6mK26mK2zDyfZWc2nSSTQRyyCZgHdFYgcF2qR&#xA;kSzin36O0/8A5Zov+AX+mRTTa2Niu628QPsij+GK0o3+lwXdpJbVMaSKF+AAAUYP0p4jDakMC1PS&#xA;5tOufq8zKzFQwKVpQk+IHhkg1nZCUwot1MVt1MVt98ZyT1zsVdirsVdirsVdirsVdirsVdirx/8A&#xA;5yN85y6Z5ft/L1nJwudXq12V2ItUO6/89H2+QI75suzsPFLiPT73WdpZ+GPCOv3Pmmmbt0bqYrbq&#xA;YrbqYotOPKsFw2rxSRqTHGGMrdgpUjv7nAWcOaD1Cyuor6dHibkGZtgTsTWvy3whBXaJZQXmpRW0&#xA;3L05OVeJodlLe/hiVjuVXzBptvYX4gg5FCgb4jU1JPy8MAKyFJ/5f0CGKKO9ErEzw0eMgUo43wEs&#xA;4xUz5LslRmNxISASKcR0+g48S8DEghJAHU7DJNTbxsjsjCjKSCPcYqzHyWf9xsy+ExP3qv8ATIyb&#xA;YcmQZFm7FXYqwzzlC41GOUj4HjAU+6k1/Xk4tU+aQUyTC3UxW3UxW33rnIvYOxV2KuxV2KuxV2Ku&#xA;xV2KuxV2Kvj/APODzEdf8/6ldI4e1t2FrZkGo9KEUqD4OxZvpzpNHi4MYDy+tzceUnpyYZTMpxbT&#xA;iPS7RvLkt+QfrCMFBrt9tR0+RyN7s69NpPTJMLdTFbZr5Sgli0ss9OMshkjp4UC7/wDA5CTfj5I6&#xA;4tZpLtpVpwa3eLfryZgR9GBJDHtL0e707XLL6wUPq+rx4En7MZrXYeOSJ2a4xIKn5uic6qpAJrCp&#xA;23/aYYxRk5sm0cEaVaA7ERLt9GRLbHkinXkpXpUEV+eBk80iH71P9Yfry1xVbUUK6hdL4TSD/hjg&#xA;CZc2TeTB/oE//GX/AI1GRk24+TIci2OxV2KsW86r8Vm3iJBT5cf65OLVlYzTJNVupii3UxW33lnI&#xA;vZuxV2KuxV2KuxV2KuxV2KuxV55+YX5i2draTaTpE4mv5QY57iM1SFSKMA4/3Z22+z8xmw0mkJPF&#xA;Lk6/V6sAcMeb5auIy8iBRv6Sk/7FN/1ZvnnCowwSTSrFGpaRyFVR3JxQGU22kX48vT2TxhZpH5Kv&#xA;JezKRuCR2OQvdvETw0xaWJ4pHjcUdCVYe4NDk2graYrbPPL1P0NbU8G/4kcrlzcnHyTHAzQtxZCa&#xA;8tbnnxNtzotK8vUXjhtiRvaKwMnYq7FXnNjA015DGoqWcbfTlpcOO5V9bgaLVbkMKc3Lr7hzUHEc&#xA;mU9in3k0n6pcDsJAfvXISbMXJkORbnYq7FWM+dB/vH/z0/40ycWjN0YzTJtNupitupitvu/OQe1d&#xA;irsVdirsVdirsVczBQWY0A3JPQDFWC+Yfzb0PT3eDTUOpXCmhkVgsAO4/vNy1P8AJFD/ADZnYdBO&#xA;W8vSHBy6+Mdo7n7HkPmb8zPO+ua2unNdfV9N4h57S1HpqynY82JLsPblTNpi0eOAurPm6nNrMk5V&#xA;e3khMva2LQeX79rl2kjCIYXVWLKfiZSoGxPjk+JxxjNony7oU1rK9zdoFlHwxLUGgPVtiflgkWWO&#xA;BG5ZBkW5hfme3WLVWZQAJUElB4moP4jLI8nFy7Fb5aQHV4gRUcW2P+qcZckYvqZqAAKAUHgMrctv&#xA;FXYq7FXYq7FWB6UOGsW4HaUD6K0y08nDgfUreYAX1FQoqeCKAN+mwwRTkO7IfL2mzWNo3rbSSkMU&#xA;/l26fPIyLfjjQTXItjsVdirHPOKgpanuC4+/jk4NGfoxmmTce3UxW3UxRb7szkHuHYq7FXYq7FXY&#xA;q7FXkH5pedZbq8k0GwkK2duSl66mnqyjqn+qh2PifkM3Gh01DjPPo6jW6mzwDl1ed5sXXJTECPM0&#xA;p8bYU/4Jcl0ah9fwTbItrsVdirsVYp5tjb6/C1NmiAB9wzf1yyDi5+a6wieHzHCjKQWjHUU/3Tv+&#xA;IxPJY7TZTlblOxV2KuxV2KuxVBQaPp8JR1hUyoaiQ9a+OG2AxgIpIo0YsqhWanIjvTpgZUvxS7FX&#xA;Yq7FWPebx+7tvm/6hk4OPqOjGqZNxbdTFbdTFbfdOcg907FXYq7FXYq7FUo826w2j+XL/UENJYo6&#xA;QGgNJZCEjND1AZgTl2DHxzEWnPk4IEvnMksSWJJO5J3JOdG867FUqBp5kb3tqf8AD1yXRp/ynwTX&#xA;ItzsVdirsVSnzFaGa1jlUVeBwf8AYsaH+GSiWnNGxaJ+qQy6kt21RJCnFKdNy6muC9mXCDK0bgbH&#xA;Yq7FXYq7FXYq7FXYq7FXYq7FXYqkPmwVt7f/AFz+rJwcbU8gxmmWOJbuOK23xxW33NnHveOxV2Ku&#xA;xV2KuxV5z+dOpJHpNjpwr6lxMZmof2IlK0I92kFPlmx7OhcjLudd2jP0iLyLNw6h2Kob6in6Q+uc&#xA;jy9P0+Hala1w3sw4PVaJwM3Yq7FXYq7FXYq7FXYq7FXYq7FXYq7FXYq7FXYq7FXYqkfmoE28H+uf&#xA;1ZODi6rkGNUyxwrdTFbdTFbfcmce9+7FXYq7FXYqhtR1Gy02ylvb2UQ20I5SSN+AA6kk7ADrkoQM&#xA;jQ5sZzERZ5Pn7zd5jm8w63LqDgpFQR20RpVIlJ4g07mpJ9znQ6fCMcaefz5jklaTZc0uxV2KuxV2&#xA;KuxV2KuxV2KuxV2KuxV2KuxV2KuxV2KuxV2KuxV2KpN5n/3ki/4yf8anJw5uLq/pDGqZa4Fupitu&#xA;pitvuHOOfQXYq7FXYqxrzR5/0LQFaKR/rWoAfDZwkFgaVHqN0Qfj7HMnBpZ5PId7jZ9XDH5nueN+&#xA;ZvNuseYbn1b6TjAh/cWsdREnbYd2/wAo7/Rtm5w6eOMbOmzZ5ZDukuXtLsVdirsVdirsVdirsVdi&#xA;rsVdirsVdirsVdirsVdirsVdirsVdirsVSjzKK2cR7CT/jU5PHzcTWfSPexumWuvt1MVt1MVt9vZ&#xA;xz6G7FVk88MELzzusUMSl5JHICqoFSST0AwgEmggkAWXkXnH81by9Z7PQme1swSGvBVZpP8AU7xr&#xA;/wAN8umbfT6ER3nue51Go1xltDYPPCSSSTUnck5sXXuxV2KuxV2KuxV2KuxV2KuxV2KuxV2KuxV2&#xA;KuxV2KuxV2KuxV2KuxV2KuxVKvMY/wBBT/jKP+Itk8fNxNZ9A97HKZc6y3ccVtumK2+2s419Gdir&#xA;A/zX9f8AR0Hr/Wf0Ry/0j6rwp6lfg9blvx/l7V678cz9DXEari83X6+6F3wvLP8AnV/+X7/kjm1/&#xA;eeTq/R5u/wCdX/5fv+SOP7zyX0ebv+dX/wCX7/kjj+88l9Hm7/nV/wDl+/5I4/vPJfR5u/51f/l+&#xA;/wCSOP7zyX0ebv8AnV/+X7/kjj+88l9Hm7/nV/8Al+/5I4/vPJfR5u/51f8A5fv+SOP7zyX0ebv+&#xA;dX/5fv8Akjj+88l9Hm7/AJ1f/l+/5I4/vPJfR5u/51f/AJfv+SOP7zyX0ebv+dX/AOX7/kjj+88l&#xA;9Hm7/nV/+X7/AJI4/vPJfR5u/wCdX/5fv+SOP7zyX0ebv+dX/wCX7/kjj+88l9Hm7/nV/wDl+/5I&#xA;4/vPJfR5u/51f/l+/wCSOP7zyX0ebv8AnV/+X7/kjj+88l9Hm7/nV/8Al+/5I4/vPJfR5u/51f8A&#xA;5fv+SOP7zyX0ebv+dX/5fv8Akjj+88l9Hm7/AJ1f/l+/5I4/vPJfR5u/51f/AJfv+SOP7zyX0ebv&#xA;+dX/AOX7/kjj+88l9Hm7/nV/+X7/AJI4/vPL7V9Hmg9V/wAEfV1+u/pP0uY4+j9X5cqH+balK5KP&#xA;i9OH7XH1PhcPq4qvpSVf8gv/AO13/wBOmT/f/wBD7XB/wb/bP9i7/kF//a7/AOnTH9//AEPtX/Bv&#xA;9s/2Lv8AkF//AGu/+nTH9/8A0PtX/Bv9s/2L/9k=</xmpGImg:image>
               </rdf:li>
            </rdf:Alt>
         </xmp:Thumbnails>
      </rdf:Description>
      <rdf:Description rdf:about=""
            xmlns:xmpMM="http://ns.adobe.com/xap/1.0/mm/"
            xmlns:stRef="http://ns.adobe.com/xap/1.0/sType/ResourceRef#"
            xmlns:stEvt="http://ns.adobe.com/xap/1.0/sType/ResourceEvent#">
         <xmpMM:InstanceID>xmp.iid:C93BE95B42C9E811A573A481082E2D23</xmpMM:InstanceID>
         <xmpMM:DocumentID>xmp.did:C93BE95B42C9E811A573A481082E2D23</xmpMM:DocumentID>
         <xmpMM:OriginalDocumentID>uuid:5D20892493BFDB11914A8590D31508C8</xmpMM:OriginalDocumentID>
         <xmpMM:RenditionClass>proof:pdf</xmpMM:RenditionClass>
         <xmpMM:DerivedFrom rdf:parseType="Resource">
            <stRef:instanceID>xmp.iid:5B19A7A4B3C8E8119A98FAF1E54D9FB3</stRef:instanceID>
            <stRef:documentID>xmp.did:5B19A7A4B3C8E8119A98FAF1E54D9FB3</stRef:documentID>
            <stRef:originalDocumentID>uuid:5D20892493BFDB11914A8590D31508C8</stRef:originalDocumentID>
            <stRef:renditionClass>proof:pdf</stRef:renditionClass>
         </xmpMM:DerivedFrom>
         <xmpMM:History>
            <rdf:Seq>
               <rdf:li rdf:parseType="Resource">
                  <stEvt:action>saved</stEvt:action>
                  <stEvt:instanceID>xmp.iid:5B19A7A4B3C8E8119A98FAF1E54D9FB3</stEvt:instanceID>
                  <stEvt:when>2018-10-05T22:06:27+05:30</stEvt:when>
                  <stEvt:softwareAgent>Adobe Illustrator CS6 (Windows)</stEvt:softwareAgent>
                  <stEvt:changed>/</stEvt:changed>
               </rdf:li>
               <rdf:li rdf:parseType="Resource">
                  <stEvt:action>saved</stEvt:action>
                  <stEvt:instanceID>xmp.iid:C93BE95B42C9E811A573A481082E2D23</stEvt:instanceID>
                  <stEvt:when>2018-10-06T14:02:28+05:30</stEvt:when>
                  <stEvt:softwareAgent>Adobe Illustrator CS6 (Windows)</stEvt:softwareAgent>
                  <stEvt:changed>/</stEvt:changed>
               </rdf:li>
            </rdf:Seq>
         </xmpMM:History>
      </rdf:Description>
      <rdf:Description rdf:about=""
            xmlns:illustrator="http://ns.adobe.com/illustrator/1.0/">
         <illustrator:StartupProfile>Print</illustrator:StartupProfile>
      </rdf:Description>
      <rdf:Description rdf:about=""
            xmlns:xmpTPg="http://ns.adobe.com/xap/1.0/t/pg/"
            xmlns:stDim="http://ns.adobe.com/xap/1.0/sType/Dimensions#"
            xmlns:xmpG="http://ns.adobe.com/xap/1.0/g/">
         <xmpTPg:HasVisibleOverprint>False</xmpTPg:HasVisibleOverprint>
         <xmpTPg:HasVisibleTransparency>False</xmpTPg:HasVisibleTransparency>
         <xmpTPg:NPages>1</xmpTPg:NPages>
         <xmpTPg:MaxPageSize rdf:parseType="Resource">
            <stDim:w>1920.000000</stDim:w>
            <stDim:h>1360.000000</stDim:h>
            <stDim:unit>Pixels</stDim:unit>
         </xmpTPg:MaxPageSize>
         <xmpTPg:PlateNames>
            <rdf:Seq>
               <rdf:li>Cyan</rdf:li>
               <rdf:li>Magenta</rdf:li>
               <rdf:li>Yellow</rdf:li>
               <rdf:li>Black</rdf:li>
            </rdf:Seq>
         </xmpTPg:PlateNames>
         <xmpTPg:SwatchGroups>
            <rdf:Seq>
               <rdf:li rdf:parseType="Resource">
                  <xmpG:groupName>Default Swatch Group</xmpG:groupName>
                  <xmpG:groupType>0</xmpG:groupType>
               </rdf:li>
            </rdf:Seq>
         </xmpTPg:SwatchGroups>
      </rdf:Description>
      <rdf:Description rdf:about=""
            xmlns:pdf="http://ns.adobe.com/pdf/1.3/">
         <pdf:Producer>Adobe PDF library 10.01</pdf:Producer>
      </rdf:Description>
   </rdf:RDF>
</x:xmpmeta>
                                                                                                    
                                                                                                    
                                                                                                    
                                                                                                    
                                                                                                    
                                                                                                    
                                                                                                    
                                                                                                    
                                                                                                    
                                                                                                    
                                                                                                    
                                                                                                    
                                                                                                    
                                                                                                    
                                                                                                    
                                                                                                    
                                                                                                    
                                                                                                    
                                                                                                    
                                                                                                    
                           
<?xpacket end="w"?>
	</metadata>
<g>
	<g>
		<defs>
			<rect id="SVGID_1_" x="539.053" y="30.913" width="1928.815" height="1350.178"/>
		</defs>
		<clipPath id="SVGID_2_">
			<use xlink:href="#SVGID_1_"  overflow="visible"/>
		</clipPath>
		<g clip-path="url(#SVGID_2_)">
			<g>
				<defs>
					<path id="SVGID_3_" d="M1202.136,709.246c-87.184,75.033-69.957,157.87-120.594,203.987
						c-55.471,50.514-141.557,49.377-187.479,111.154c-63.663,85.657-36.206,134.177-83.116,189.524
						c-49.269,58.127-129.361,82.712-186.236,134.352c-59.328,53.863-114.981,133.444-76.942,213.416
						c33.897,71.261,116.442,106.729,191.135,114.867c89.461,9.752,181.438-6.96,269.11,13.367
						c64.557,14.968,128.944,49.852,193.372,34.334c69.164-16.652,116.655-87.57,186.794-99.5
						c96.114-16.338,184.188,47.261,279.483,67.838c188.913,40.797,226.93-87.94,315.289-142.824
						c208.649-129.578,320.629,124.096,532.035,21.534c64.315-31.202,104.076-99.592,118.985-169.505
						c14.911-69.915,8.621-142.372,3.109-213.649c-33.151-428.458-35.886-859.268-8.178-1288.112
						C2509.813-1.365,2369.997,72.085,2221.23,114.199c-92.258,26.116-182.491,45.946-238.515,130.627
						c-48.15,72.778-86.6,156.911-178.13,181.034c-51.985,13.702-105.231,1.922-157.086,9.371
						c-57.032,8.19-118.587,40.573-144.899,89.618C1375.534,761.658,1293.025,631.02,1202.136,709.246z"/>
				</defs>
				<defs>
					<path id="SVGID_4_" d="M1298.139,708.57c-87.184,75.033-69.957,157.87-120.594,203.988
						c-55.472,50.513-141.557,49.376-187.479,111.153c-63.663,85.658-36.206,134.176-83.116,189.525
						c-49.27,58.126-129.361,82.711-186.236,134.35c-59.328,53.864-114.981,133.445-76.942,213.417
						c33.897,71.261,116.442,106.728,191.136,114.867c89.461,9.753,181.438-6.96,269.109,13.368
						c64.557,14.968,128.945,49.851,193.372,34.333c69.164-16.652,116.655-87.57,186.793-99.5
						c96.115-16.337,184.188,47.26,279.484,67.839c188.913,40.797,226.93-87.941,315.289-142.826
						c208.649-129.576,320.629,124.098,532.035,21.535c64.315-31.202,104.076-99.591,118.985-169.505
						c14.911-69.915,8.621-142.371,3.108-213.649c-33.15-428.457-35.886-859.267-8.177-1288.112
						C2605.816-2.041,2466,71.41,2317.233,113.523c-92.258,26.115-182.491,45.946-238.515,130.627
						c-48.15,72.778-86.601,156.91-178.13,181.033c-51.985,13.702-105.232,1.922-157.087,9.371
						c-57.031,8.191-118.587,40.574-144.898,89.619C1471.536,760.982,1389.028,630.344,1298.139,708.57z"/>
				</defs>
				<clipPath id="SVGID_5_">
					<use xlink:href="#SVGID_3_"  overflow="visible"/>
				</clipPath>
				<clipPath id="SVGID_6_" clip-path="url(#SVGID_5_)">
					<use xlink:href="#SVGID_4_"  overflow="visible"/>
				</clipPath>
				
					<linearGradient id="SVGID_7_" gradientUnits="userSpaceOnUse" x1="1581.6934" y1="1716.918" x2="1581.6932" y2="-85.4351" gradientTransform="matrix(0.9998 -0.0175 0.0175 0.9998 -14.1023 28.6094)">
					<stop  offset="0" style="stop-color:#008EBB"/>
					<stop  offset="1" style="stop-color:#172362"/>
				</linearGradient>
				<path clip-path="url(#SVGID_6_)" fill="url(#SVGID_7_)" stroke="#3764A9" stroke-miterlimit="10" d="M1199.608,706.289
					c-87.18,75.034-69.958,157.871-120.593,203.988c-55.469,50.513-230.594,9.282-257.158,81.522
					c-24.396,66.313-66.384,118.703-113.29,174.047c-49.267,58.13-29.507,127.819-86.376,179.456
					c-59.331,53.868-114.986,133.447-76.948,213.418c33.898,71.262,116.443,106.729,191.139,114.87
					c89.458,9.752,181.44-6.963,269.109,13.365c64.553,14.968,128.944,49.852,193.371,34.336
					c69.166-16.655,116.654-87.573,186.792-99.5c96.117-16.34,184.188,47.26,279.482,67.838
					c188.922,40.795,226.938-87.942,315.291-142.827c208.648-129.575,320.629,124.1,532.035,21.534
					c64.313-31.201,104.08-99.592,118.989-169.505c14.906-69.915,8.622-142.369,3.107-213.646
					c-33.151-428.459-35.882-859.27-8.183-1288.114C2507.295-4.323,2367.474,69.128,2218.71,111.241
					c-92.257,26.116-182.496,45.947-238.518,130.628c-48.151,72.778-86.601,156.909-178.132,181.032
					c-51.986,13.703-105.226,1.922-157.08,9.371c-57.035,8.19-118.588,40.573-144.905,89.618
					C1373.007,758.702,1290.5,628.063,1199.608,706.289z"/>
				<path clip-path="url(#SVGID_6_)" fill="#5391C4" d="M407.739,999.733l15.408,882.711l1849.4-32.281l-18.35-1051.252
					l-7.086,0.124l-1.158-66.387l-16.157,0.281l-0.088-4.992l-6.576,0.114l-0.156-8.983l-12.044,0.21l-0.623-35.688l-7.724,0.135
					l-5.664-79.672l-3.395,0.06l-2.885,79.822l-7.721,0.135l0.623,35.688l-2.465,0.044l-0.364-20.87l-172.019,3.002l4.528,259.457
					l-35.207,34.126l-24.083,0.421l0.174,9.955l-10.429,0.182l-1.515-86.791l-7.586,0.133l-6.232-118.342l-3.329,0.059
					l-2.104,118.486l-7.58,0.133l1.515,86.791l-41.289,0.721l0.38,21.741l-9.737-12.729l-4.123-236.224l-60.785,1.061l-1.126-64.504
					l-4.255,0.074l-3.503-66.469l-1.872,0.033l-1.176,66.55l-4.263,0.075l1.126,64.504l-32.282,0.563l1.608,92.168l-50.186,0.876
					l-1.73-99.173l-34.597,0.604l2.213,126.805l-17.675,0.309l-0.854-48.895l-33.257,0.58l-0.753-43.163l-17.678,0.309l0.753,43.163
					l-12.504,0.219l-0.768-44.001l-10.155,0.177l-0.079-4.545l-4.133,0.072l-0.144-8.178l-7.573,0.132l-1.07-61.354l-4.865,0.084
					l-3.611-53.576l-2.134,0.037l-1.736,53.67l-4.867,0.085l1.07,61.354l-7.576,0.133l0.144,8.178l-4.13,0.072l0.079,4.545
					l-10.159,0.177l0.768,44.001l-11.022,0.192l1.402,80.313l-31.889,0.557l2.435,139.487l-19.156,0.334l0.654,37.496l-5.162,0.091
					l-1.132-64.877l-6.363,0.11l-4.486-56.643l-2.794,0.049l-2.506,56.765l-6.366,0.111l1.132,64.877l-9.9,0.173l0.105,6.036
					l-27.871-81.976l-1.074-61.53l-4.895-15.154l-0.272-15.6l-4.739,0.083l-9.646-29.859l-16.575,0.791l-1.472-84.31l-23.974,0.419
					l1.484,85.042l-24.884,1.191l-12.344,20.682l-23.16,38.818l-24.934,0.435l-0.149-8.557l-4.866,0.085l-3.612-53.574l-2.134,0.037
					l-1.739,53.668l-4.866,0.085l0.149,8.557l-22.905,0.4l-2.698-154.585l-2.527,0.045l2.698,154.584l-13.322,0.232l-1.814-103.928
					l-71.69,1.251l1.814,103.928l-12.001,0.21l2.796,160.2l-19.899,0.348l-3.596-205.996l-7.694,0.134l-0.694-39.81l-51.289-13.338
					l1.369,78.4l-14.911,0.261l-0.72-41.24l-28.052,0.489l-0.636-36.408l-14.905,0.261l0.636,36.408l-40.085,0.699l2.242,128.426
					l-34.363,0.6l-2.512-143.896l-35.29,0.616l-1.371-78.544l-4.264,0.074l-3.501-66.469l-1.87,0.033l-1.172,66.551l-4.263,0.074
					l1.371,78.543l-71.17,1.243l-0.38-21.785l-50.186,0.876l-1.608-92.168l-76.643,1.338l-1.832-104.949l-136.49,36.972
					l3.726,181.111l-58.417,1.02l1.489,85.317l-57.354,1.001L407.739,999.733z M2198.518,688.291l3.655-0.064l0.501,28.704
					l-3.655,0.063L2198.518,688.291z M2191.218,688.418l3.648-0.064l0.501,28.705l-3.648,0.063L2191.218,688.418z M1930.732,930.539
					l3.577-0.063l1.322,75.736l-3.577,0.063L1930.732,930.539z M1923.574,930.664l3.58-0.063l1.322,75.736l-3.58,0.063
					L1923.574,930.664z M1794.654,774.699l2.009-0.035l0.114,6.526l-2.009,0.035L1794.654,774.699z M1790.636,774.77l2.011-0.035
					l0.114,6.525l-2.011,0.035L1790.636,774.77z M1557.973,742.263l2.296-0.04l0.96,54.987l-2.296,0.04L1557.973,742.263z
					 M1553.386,742.343l2.292-0.04l0.96,54.987l-2.292,0.04L1553.386,742.343z M1454.794,1054.894l2.999-0.053l1.015,58.146
					l-2.999,0.053L1454.794,1054.894z M1448.791,1054.998l2.999-0.052l1.015,58.146l-2.999,0.052L1448.791,1054.998z
					 M1357.471,898.182l3.199-0.056l0.364,20.853l-3.197,0.153L1357.471,898.182z M1351.077,898.293l3.201-0.056l0.368,21.048
					l-3.2,0.151L1351.077,898.293z M1251.399,976.574l2.3-0.04l0.078,4.464l-2.3,0.04L1251.399,976.574z M1246.81,976.654
					l2.297-0.04l0.078,4.464l-2.297,0.04L1246.81,976.654z M864.781,889.045l2.012-0.035l0.359,20.566l-2.012,0.035L864.781,889.045
					z M860.763,889.115l2.009-0.035l0.359,20.566l-2.009,0.035L860.763,889.115z"/>
			</g>
		</g>
	</g>
</g>
</svg>
