<?xml version="1.0" encoding="utf-8"?>
<!-- Generator: Adobe Illustrator 21.0.0, SVG Export Plug-In . SVG Version: 6.00 Build 0)  -->
<svg version="1.1" id="Layer_1" xmlns="http://www.w3.org/2000/svg" xmlns:xlink="http://www.w3.org/1999/xlink" x="0px" y="0px"
	 viewBox="0 0 179.6 216" style="enable-background:new 0 0 179.6 216;" xml:space="preserve">
<style type="text/css">
	.st0{fill:#2CC46D;}
	.st1{clip-path:url(#SVGID_2_);}
	.st2{fill:#FFFFFF;}
	.st3{fill:none;stroke:#06AB50;stroke-width:12;stroke-linecap:round;stroke-miterlimit:10;}
	.st4{fill:#06AB50;}
</style>
<title>g-map logo</title>
<ellipse class="st0" cx="89.8" cy="91.2" rx="84.3" ry="83.6"/>
<g>
	<defs>
		<ellipse id="SVGID_1_" cx="89.8" cy="91.2" rx="84.3" ry="83.6"/>
	</defs>
	<clipPath id="SVGID_2_">
		<use xlink:href="#SVGID_1_"  style="overflow:visible;"/>
	</clipPath>
	<g class="st1">
		<path class="st2" d="M140.2,35.8c-2-4.7,2.2-4.9,6.4-7.1S119.9,9,119.9,9s-0.7,2.5-9.9,2S97.6,7.8,90.6,7.8S79,8.5,75,14.4
			s-1.5-2.7-6.9-0.3s-4.5,4.2-9.4,5.6S44.2,34.1,42.8,31.4s4.5-7.6-2-5.9c-6.5,1.7-11.1,6.1-13.9,9.3s-7.2,9.3-4.2,10.3
			s5.2-2.7,8.2-8.1s5-2.5,2.7,1.2c-2.3,3.7-9.4,8.9-13.6,11.5s-6,6.6-5.5,10.8s-2.5,4.7-4,7.1c-0.9,1.5-0.8,4.1,0,4.8
			c-0.5,0.3-0.9,0.8-1.3,1.3C5.8,79.4,3,86.2,5,94.5s4,12.3,8.9,12.3s6.2,4.2,5.7,6.1s-0.5,3.4,1.2,7.9c1.7,4.4-1.7,5.9,1,10.8
			c2.7,4.9,4.5,8.4,6.9,11.3s8.4,6.6,10.7,3.2c2.2-3.4,1-9.3,4.2-11.1s2-9.8,1-13.5c-1-3.7,7.2-6.4,9.9-13s2.2-8.3-2-7.1
			s-10.2-6.3-12.4-13.7s-1-5.9,3.7,1.7s4.5,10.6,9.4,8.1s13.9-5.2,13.4-10.1s-3.7-7.4-6.2-4.9s-7.9-4.9-7.2-7.1s5,1,8.2,3.4
			S67.8,81.5,72,81s5,2.5,7.4,5.7s3.5-2.8,5.7,1s-1.7,6.3,2.5,12.2s6.7,7.1,7.4,1.5s1.5-8,5.2-11s6-8.4,9.4-4.2
			c3.4,4.2,0.3,9.1,5.7,10.8s6,3.2,11.4,5.2c5.4,2,6.9-5.2,3.5-9.6c-3.5-4.4,3.2-5.9,7.4-7.1s6.9-5.2,5-10.3s-8.7-13.3-5-15
			s6.9,0.7,8.2,5.2s5.2,0.7,1-5.4s1.7-7.9,2.2-12S142.2,40.4,140.2,35.8z M42.2,60.1c-5.7,0.3-13.6,4.2-9.2,6.6s9.2,3.4,4.7,6.4
			s-12.7,4.9-16.4,2c-2.6-2.1-6.3-3.8-9.1-3.3c0.2-0.2,0.3-0.5,0.5-0.7c2.5-4.2,2-10.1,5.5-8.8s2,5.4,4.5,5.2s-1.2-5.7,0.5-7.4
			s0.5,6.4,4.5,6.6s4.7-2.2,5-6.9s3.7-8.6,7.7-6.4C44.2,55.7,48,59.9,42.2,60.1L42.2,60.1z M52.9,65c-4.5-1.2,0.5-4.7-1.7-6.9
			s0.4-4.5,2.2-6.4c4-4.2,1.7,5.4,4.5,9.6S57.4,66.3,52.9,65z"/>
		<path class="st2" d="M54.9,131.1c-3.1,3.5-6.4,0.5-5.2,4.2s-2.4,6.4,0.6,7.6s2.8,0.3,5.1-5.2S56.9,128.9,54.9,131.1z"/>
		<path class="st2" d="M155.1,57.4c0,3.8,0.7,5.4-1,7.4s-4.2,5.9-3,9.1s1.7-3.4,4-5.7s3.7-3.2,2.7-7.4S155.1,55.2,155.1,57.4z"/>
		<path class="st2" d="M138.7,108.9c-1.6,3.4-5.5,1.3-5.5,5.1s3.8,9.8,5.8,5.9s3.3-4.1,4-8S140,106.1,138.7,108.9z"/>
		<path class="st2" d="M117.4,108.2c0.2,2.8,3.1,3.9,5.5,8.2s4.6,7.7,6.6,7.9c2,0.2,14.6,3.8,13.9,0.2c-0.7-3.6-12.3-0.1-14.8-5.5
			C126.1,113.5,117.1,103.4,117.4,108.2z"/>
		<path class="st2" d="M142.7,135.1c-3.1,2.7-7.4,1.6-9.4,6.2s-7.1,15.1-2.3,12.4c4.8-2.6,10.6-7.4,13.7-5.4s2.5,6.6,5.3,4.4
			s12.2-9,12.6-14.6s-0.2-7.5-1-10.3c-0.8-2.8-2.1,0-4.3,2.3c-2.2,2.3,1.2-4.9-5.8-1.6C144.5,131.8,145.3,132.8,142.7,135.1z"/>
		<path class="st2" d="M154.9,113.4c-1.8,1.8-1.5,3.4,1.5,4.6s4,5.4,5.5,3.8s4.8,1.6,4.6-1.6s-2.1-5.2-5.3-4.9
			S157.1,111.3,154.9,113.4z"/>
		<path class="st2" d="M144.7,91.3c-1.2,3.3-1,5.6,1.5,7s3.8,3.6,2.1,5.4s1.6,4.1,2.5,1.3s-0.8-6.2-2.5-9.7S145.9,88.1,144.7,91.3z"
			/>
		<path class="st2" d="M150.3,29.4L150.3,29.4c-0.5,2,1,5.4,3.3,8.1s4.6,9.8,4.5,6.9s1.6-6.1-0.7-9.3S150,25.6,150.3,29.4z"/>
	</g>
</g>
<ellipse class="st3" cx="89.8" cy="91.2" rx="83.8" ry="83"/>
<path class="st3" d="M169.7,175.2c-41.2,44.2-110.5,46.7-154.8,5.4c-1.9-1.7-3.7-3.5-5.4-5.4"/>
<path class="st4" d="M176,2.8c-4.5-4-11.4-3.6-15.4,0.9c-4.3,4.8-4.5,21.4-4.5,21.4s16.1-1.6,20.8-6.8C180.8,13.7,180.5,6.8,176,2.8
	z M167,12.8c-1.3-1.1-1.4-3-0.3-4.2c1.1-1.3,3-1.4,4.2-0.3c1.3,1.1,1.4,3,0.3,4.2c0,0,0,0-0.1,0.1C170,13.7,168.2,13.8,167,12.8
	L167,12.8z"/>
</svg>
